<svg width="24" height="24" viewBox="0 0 24 24" fill="none" xmlns="http://www.w3.org/2000/svg">
<path fill-rule="evenodd" clip-rule="evenodd" d="M18.7009 4.82044C19.3666 5.48724 19.3661 6.56785 18.6997 7.23403L6.75071 19.1803C6.08437 19.8464 5.00452 19.8459 4.3388 19.1791C3.67309 18.5123 3.67359 17.4317 4.33993 16.7655L16.289 4.81932C16.9553 4.15313 18.0351 4.15364 18.7009 4.82044Z" fill="#FCFCFC"/>
<path fill-rule="evenodd" clip-rule="evenodd" d="M18.7009 19.1796C18.0351 19.8464 16.9553 19.8469 16.289 19.1807L4.33993 7.23446C3.67359 6.56828 3.67309 5.48768 4.33881 4.82088C5.00453 4.15407 6.08437 4.15357 6.75071 4.81975L18.6997 16.766C19.3661 17.4322 19.3666 18.5128 18.7009 19.1796Z" fill="#FCFCFC"/>
</svg>
