<svg width="24" height="24" viewBox="0 0 24 24" fill="none" xmlns="http://www.w3.org/2000/svg">
<g id="icon/outline/darkmode/edit">
<path id="Mask" fill-rule="evenodd" clip-rule="evenodd" d="M11.9831 7.30084L6.36614 12.9178L6.10214 15.8738L9.07914 15.6028L14.6791 9.99684L11.9831 7.30084ZM17.9661 6.70684L15.2711 4.01284L13.3231 5.96084L16.0181 8.65684L17.9661 6.70684ZM5.09114 17.9738C5.06014 17.9768 5.03014 17.9778 5.00014 17.9778C4.73614 17.9778 4.48114 17.8738 4.29314 17.6848C4.08314 17.4748 3.97714 17.1828 4.00414 16.8878L4.38314 12.7168C4.42514 12.2598 4.62714 11.8288 4.95214 11.5038L13.9481 2.50684C14.6501 1.80284 15.9241 1.83784 16.6641 2.57684L19.4021 5.31484H19.4031C20.1691 6.08184 20.1991 7.29884 19.4711 8.02884L10.4741 17.0258C10.1491 17.3518 9.71914 17.5528 9.26114 17.5948L5.09114 17.9738ZM5 19.9779H19C19.55 19.9779 20 20.4279 20 20.9779C20 21.5279 19.55 21.9779 19 21.9779H5C4.45 21.9779 4 21.5279 4 20.9779C4 20.4279 4.45 19.9779 5 19.9779Z" fill="white"/>
</g>
</svg>
