<svg width="24" height="24" viewBox="0 0 24 24" fill="none" xmlns="http://www.w3.org/2000/svg">
<g id="icon/outline/darkmode/share">
<path id="Mask" fill-rule="evenodd" clip-rule="evenodd" d="M18 19C17.448 19 17 18.552 17 18C17 17.448 17.448 17 18 17C18.552 17 19 17.448 19 18C19 18.552 18.552 19 18 19ZM5 13C4.448 13 4 12.552 4 12C4 11.448 4.448 11 5 11C5.552 11 6 11.448 6 12C6 12.552 5.552 13 5 13ZM18 5C18.552 5 19 5.448 19 6C19 6.552 18.552 7 18 7C17.448 7 17 6.552 17 6C17 5.448 17.448 5 18 5ZM18 15C17.183 15 16.443 15.33 15.901 15.861L7.966 12.335C7.979 12.224 8 12.114 8 12C8 11.886 7.979 11.776 7.966 11.665L15.901 8.139C16.443 8.67 17.183 9 18 9C19.654 9 21 7.654 21 6C21 4.346 19.654 3 18 3C16.346 3 15 4.346 15 6C15 6.114 15.021 6.224 15.034 6.335L7.099 9.861C6.557 9.33 5.817 9 5 9C3.346 9 2 10.346 2 12C2 13.654 3.346 15 5 15C5.817 15 6.557 14.67 7.099 14.139L15.034 17.665C15.021 17.776 15 17.886 15 18C15 19.654 16.346 21 18 21C19.654 21 21 19.654 21 18C21 16.346 19.654 15 18 15Z" fill="white"/>
</g>
</svg>
