<svg width="24" height="24" viewBox="0 0 24 24" fill="none" xmlns="http://www.w3.org/2000/svg">
<g id="icon/outline/darkmode/twitter">
<path id="Mask" fill-rule="evenodd" clip-rule="evenodd" d="M19.0156 6.65406V6.65606V6.65406ZM8.51263 17.9971C8.53663 17.9971 8.56263 17.9981 8.58663 18.0001C14.2816 17.9631 17.6806 13.6121 17.6806 9.40606C17.6806 9.02406 17.8766 8.77706 18.0506 8.55806C18.2086 8.35806 18.4536 8.05006 18.6716 7.60606C17.8786 7.59806 17.1706 7.24606 16.7586 6.76406C16.3276 6.30306 15.7086 6.02106 15.0406 6.00106C14.3966 5.97506 13.7396 6.22306 13.2516 6.68606C12.6016 7.30306 12.3236 8.23406 12.5256 9.11406L12.7866 10.2531L11.6206 10.3351C8.60463 10.5611 6.51463 9.27006 5.07963 7.93406C5.08563 9.95406 5.75663 12.6491 8.80663 14.3871L9.76463 14.9331L9.12763 15.8341C8.46463 16.7731 7.46663 17.3721 6.45063 17.7551C7.12163 17.9151 7.81163 17.9971 8.49963 17.9971H8.51163H8.51263ZM8.51263 20.0001C8.48663 20.0001 8.45863 19.9991 8.43263 19.9971C6.82963 19.9861 5.22163 19.6131 3.77763 18.9141C3.23463 18.6501 2.92763 18.0721 3.01463 17.4721C3.10263 16.8651 3.56863 16.3891 4.17263 16.2911C5.21763 16.1191 6.08463 15.8131 6.71263 15.4041C2.83563 12.5051 2.93763 8.16506 3.18863 6.32706C3.26263 5.78906 3.64563 5.34006 4.16363 5.18306C4.68963 5.02306 5.23463 5.18306 5.59463 5.59206C7.13063 7.33306 8.66563 8.20806 10.4656 8.34106C10.5176 7.17606 11.0136 6.05306 11.8746 5.23506C12.7516 4.40206 13.8986 3.96606 15.1026 4.00206C16.3076 4.03906 17.4256 4.54706 18.2496 5.43206C18.3336 5.52806 18.6476 5.70206 19.0266 5.53206C19.5236 5.30906 20.0886 5.38306 20.5006 5.72706C20.9116 6.06806 21.0866 6.60506 20.9586 7.12806C20.6356 8.45906 19.9976 9.31706 19.6756 9.72806C19.5076 14.8331 15.3596 20.0001 8.51263 20.0001Z" fill="white"/>
</g>
</svg>
