<svg width="270" height="151" viewBox="0 0 270 151" fill="none" xmlns="http://www.w3.org/2000/svg">
<rect width="270" height="151" fill="#070707"/>
<rect x="8.5" y="8.5" width="192" height="134" rx="1.5" fill="#131313"/>
<rect x="8.5" y="8.5" width="192" height="134" rx="1.5" stroke="#1F1F1F"/>
<path fill-rule="evenodd" clip-rule="evenodd" d="M101.167 71.4998C101.167 69.6589 102.66 68.1665 104.501 68.1665C106.342 68.1665 107.834 69.6589 107.834 71.4998C107.834 73.3408 106.342 74.8332 104.501 74.8332C102.66 74.8332 101.167 73.3408 101.167 71.4998Z" fill="#666666"/>
<path fill-rule="evenodd" clip-rule="evenodd" d="M97.834 82.1665C97.834 78.4846 100.819 75.4998 104.501 75.4998C108.183 75.4998 111.167 78.4846 111.167 82.1665V82.8332H97.834V82.1665Z" fill="#666666"/>
<rect x="209.5" y="8.5" width="52" height="38.6667" rx="1.5" fill="#131313"/>
<rect x="209.5" y="8.5" width="52" height="38.6667" rx="1.5" stroke="#1F1F1F"/>
<g clip-path="url(#clip0_834_19648)">
<path fill-rule="evenodd" clip-rule="evenodd" d="M232.167 23.8333C232.167 21.9924 233.66 20.5 235.501 20.5C237.342 20.5 238.834 21.9924 238.834 23.8333C238.834 25.6743 237.342 27.1667 235.501 27.1667C233.66 27.1667 232.167 25.6743 232.167 23.8333Z" fill="#666666"/>
<path fill-rule="evenodd" clip-rule="evenodd" d="M228.834 34.5C228.834 30.8181 231.819 27.8333 235.501 27.8333C239.183 27.8333 242.167 30.8181 242.167 34.5V35.1667H228.834V34.5Z" fill="#666666"/>
</g>
<rect x="209.5" y="56.1665" width="52" height="38.6667" rx="1.5" fill="#131313"/>
<rect x="209.5" y="56.1665" width="52" height="38.6667" rx="1.5" stroke="#CCCCCC"/>
<path fill-rule="evenodd" clip-rule="evenodd" d="M232.167 71.4998C232.167 69.6589 233.66 68.1665 235.501 68.1665C237.342 68.1665 238.834 69.6589 238.834 71.4998C238.834 73.3408 237.342 74.8332 235.501 74.8332C233.66 74.8332 232.167 73.3408 232.167 71.4998Z" fill="#CCCCCC"/>
<path fill-rule="evenodd" clip-rule="evenodd" d="M228.834 82.1665C228.834 78.4846 231.819 75.4998 235.501 75.4998C239.183 75.4998 242.167 78.4846 242.167 82.1665V82.8332H228.834V82.1665Z" fill="#CCCCCC"/>
<rect x="209.5" y="103.833" width="52" height="38.6667" rx="1.5" fill="#131313"/>
<rect x="209.5" y="103.833" width="52" height="38.6667" rx="1.5" stroke="#1F1F1F"/>
<g clip-path="url(#clip1_834_19648)">
<path fill-rule="evenodd" clip-rule="evenodd" d="M232.167 119.167C232.167 117.326 233.66 115.833 235.501 115.833C237.342 115.833 238.834 117.326 238.834 119.167C238.834 121.008 237.342 122.5 235.501 122.5C233.66 122.5 232.167 121.008 232.167 119.167Z" fill="#666666"/>
<path fill-rule="evenodd" clip-rule="evenodd" d="M228.834 129.833C228.834 126.152 231.819 123.167 235.501 123.167C239.183 123.167 242.167 126.152 242.167 129.833V130.5H228.834V129.833Z" fill="#666666"/>
</g>
<defs>
<clipPath id="clip0_834_19648">
<rect width="16" height="16" fill="white" transform="translate(227.5 19.8335)"/>
</clipPath>
<clipPath id="clip1_834_19648">
<rect width="16" height="16" fill="white" transform="translate(227.5 115.167)"/>
</clipPath>
</defs>
</svg>
